<?xml version="1.0" encoding="UTF-8"?>
<!DOCTYPE svg PUBLIC "-//W3C//DTD SVG 1.1//EN" "http://www.w3.org/Graphics/SVG/1.1/DTD/svg11.dtd">
<!-- Creator: CorelDRAW -->
<svg xmlns="http://www.w3.org/2000/svg" xml:space="preserve" width="6.82666in" height="6.82666in" style="shape-rendering:geometricPrecision; text-rendering:geometricPrecision; image-rendering:optimizeQuality; fill-rule:evenodd; clip-rule:evenodd"
viewBox="0 0 6.82666 6.82666"
 xmlns:xlink="http://www.w3.org/1999/xlink">
 <defs>
  <style type="text/css">
   <![CDATA[
    .str0 {stroke:#212121;stroke-width:0.00333465;stroke-linecap:round;stroke-linejoin:round}
    .fil2 {fill:none}
    .fil1 {fill:#0288D1}
    .fil0 {fill:#29B6F6}
    .fil5 {fill:#424242;fill-rule:nonzero}
    .fil6 {fill:#645649;fill-rule:nonzero}
    .fil7 {fill:#786758;fill-rule:nonzero}
    .fil4 {fill:#B08D58;fill-rule:nonzero}
    .fil3 {fill:#CEAB75;fill-rule:nonzero}
   ]]>
  </style>
   <clipPath id="id0">
    <path d="M3.41333 0c1.88513,0 3.41333,1.5282 3.41333,3.41333 0,1.88513 -1.5282,3.41333 -3.41333,3.41333 -1.88513,0 -3.41333,-1.5282 -3.41333,-3.41333 0,-1.88513 1.5282,-3.41333 3.41333,-3.41333z"/>
   </clipPath>
 </defs>
 <g id="Layer_x0020_1">
  <metadata id="CorelCorpID_0Corel-Layer"/>
  <path class="fil0" d="M3.41333 0c1.88513,0 3.41333,1.5282 3.41333,3.41333 0,1.88513 -1.5282,3.41333 -3.41333,3.41333 -1.88513,0 -3.41333,-1.5282 -3.41333,-3.41333 0,-1.88513 1.5282,-3.41333 3.41333,-3.41333z"/>
  <g style="clip-path:url(#id0)">
   <g id="_414979184">
    <g>
     <path id="_4216160721" class="fil1" d="M8.33025 8.7798l0 0zm-3.78627 -3.78627l0 0z"/>
     <polygon id="_421616984" class="fil1" points="3.38413,2.74335 7.1704,6.52962 6.43719,6.74931 6.42945,6.75121 6.42171,6.7523 6.41402,6.75261 6.40641,6.75215 6.39896,6.75096 6.39169,6.74907 6.38467,6.7465 6.37793,6.74328 6.37153,6.73942 6.36552,6.73497 6.35994,6.72994 2.57367,2.94367 2.57925,2.9487 2.58526,2.95315 2.59166,2.957 2.5984,2.96023 2.60542,2.9628 2.61269,2.96469 2.62015,2.96588 2.62775,2.96633 2.63544,2.96603 2.64319,2.96494 2.65092,2.96304 "/>
     <polygon id="_421617872" class="fil1" points="4.54398,4.99353 8.33025,8.7798 8.32985,8.79148 8.32898,8.80298 8.32765,8.81432 8.32587,8.82548 8.32364,8.83647 8.32098,8.84726 8.31789,8.85787 8.31438,8.86828 8.31046,8.87848 8.30615,8.88848 8.30144,8.89827 8.29635,8.90783 8.29088,8.91718 8.28505,8.9263 8.27887,8.93518 8.27233,8.94382 8.26546,8.95222 8.25826,8.96037 8.25074,8.96827 8.24291,8.9759 8.23477,8.98327 8.22634,8.99037 8.21762,8.99719 8.20863,9.00373 8.19937,9.00998 8.18985,9.01594 8.18007,9.0216 8.17006,9.02696 8.15982,9.03202 8.14935,9.03675 8.13867,9.04117 8.12778,9.04527 4.34151,5.259 4.3524,5.2549 4.36308,5.25048 4.37355,5.24574 4.3838,5.24069 4.39381,5.23533 4.40358,5.22967 4.4131,5.22371 4.42236,5.21746 4.43135,5.21092 4.44007,5.20409 4.4485,5.197 4.45664,5.18963 4.46447,5.182 4.47199,5.1741 4.47919,5.16595 4.48607,5.15755 4.4926,5.14891 4.49878,5.14002 4.50461,5.13091 4.51008,5.12156 4.51517,5.112 4.51988,5.10221 4.52419,5.09221 4.52811,5.082 4.53162,5.07159 4.53471,5.06099 4.53737,5.0502 4.5396,5.03921 4.54139,5.02805 4.54272,5.01671 4.54359,5.0052 "/>
     <polygon id="_421617656" class="fil1" points="4.34151,5.259 8.12778,9.04527 8.11281,9.05028 4.32654,5.26401 "/>
     <polygon id="_421617848" class="fil1" points="4.32654,5.26401 8.11281,9.05028 8.10618,9.05226 8.09953,9.05411 8.09286,9.05584 8.08618,9.05743 8.07948,9.0589 8.07278,9.06024 8.06606,9.06144 8.05933,9.06252 8.0526,9.06346 8.04586,9.06427 8.03911,9.06494 8.03237,9.06548 8.02562,9.06588 8.01887,9.06614 8.01213,9.06627 8.00539,9.06625 7.99866,9.06609 7.99194,9.0658 7.98522,9.06535 7.97852,9.06477 7.97183,9.06404 7.96515,9.06316 7.95849,9.06213 7.95185,9.06096 7.94522,9.05964 7.93862,9.05817 7.93204,9.05655 7.92548,9.05478 7.91895,9.05285 7.91245,9.05078 7.90598,9.04854 7.89954,9.04615 4.11327,5.25988 4.11971,5.26227 4.12618,5.2645 4.13269,5.26658 4.13922,5.26851 4.14577,5.27028 4.15235,5.2719 4.15895,5.27337 4.16558,5.27469 4.17222,5.27586 4.17888,5.27689 4.18556,5.27776 4.19225,5.2785 4.19896,5.27908 4.20567,5.27952 4.21239,5.27982 4.21913,5.27998 4.22587,5.28 4.23261,5.27987 4.23935,5.27961 4.2461,5.27921 4.25285,5.27867 4.25959,5.278 4.26633,5.27719 4.27306,5.27625 4.27979,5.27517 4.28651,5.27397 4.29322,5.27263 4.29991,5.27116 4.30659,5.26957 4.31326,5.26784 4.31991,5.26599 "/>
     <polygon id="_421618040" class="fil1" points="4.11327,5.25988 7.89954,9.04615 7.89239,9.04325 7.88532,9.04014 7.87833,9.03683 7.87143,9.03332 7.86461,9.0296 7.85789,9.02567 7.85126,9.02153 7.84473,9.01718 7.83831,9.01262 7.832,9.00784 7.8258,9.00285 7.81972,8.99765 7.81376,8.99222 4.02749,5.20594 4.03345,5.21137 4.03954,5.21658 4.04573,5.22157 4.05204,5.22635 4.05846,5.23091 4.06499,5.23526 4.07162,5.2394 4.07834,5.24333 4.08516,5.24705 4.09206,5.25056 4.09905,5.25387 4.10612,5.25698 "/>
     <polygon id="_421617944" class="fil1" points="4.10525,3.71829 7.89152,7.50456 7.90497,7.53992 7.91845,7.57537 7.93196,7.61091 7.94549,7.64654 7.95903,7.68225 7.97259,7.71804 7.98615,7.75392 7.99971,7.78987 8.01327,7.82591 8.02682,7.86201 8.04036,7.89819 8.05388,7.93443 8.06737,7.97074 8.08084,8.00711 8.09427,8.04355 8.10767,8.08005 8.12102,8.11661 8.13431,8.15322 8.14756,8.18988 8.16076,8.22659 8.17388,8.26335 8.18694,8.30017 8.19993,8.33702 8.21283,8.37391 8.22566,8.41084 8.23839,8.44781 8.25104,8.48482 8.26358,8.52185 8.27602,8.55892 8.28835,8.59602 8.30057,8.63313 8.31268,8.67028 8.31483,8.67713 8.31685,8.68396 8.31874,8.69076 8.32048,8.69756 8.32208,8.70434 8.32355,8.71111 8.32487,8.71789 8.32605,8.72468 8.32709,8.73148 8.32798,8.73829 8.32872,8.74513 8.32932,8.75198 8.32978,8.75888 8.33009,8.76581 8.33024,8.77278 8.33025,8.7798 4.54398,4.99353 4.54398,4.98651 4.54382,4.97954 4.54351,4.97261 4.54306,4.96571 4.54246,4.95885 4.54171,4.95202 4.54082,4.9452 4.53978,4.93841 4.5386,4.93162 4.53728,4.92484 4.53581,4.91807 4.53421,4.91128 4.53247,4.90449 4.53059,4.89769 4.52857,4.89085 4.52641,4.884 4.51431,4.84686 4.50209,4.80974 4.48975,4.77265 4.47731,4.73558 4.46477,4.69855 4.45213,4.66154 4.43939,4.62457 4.42656,4.58764 4.41366,4.55074 4.40067,4.51389 4.38761,4.47708 4.37449,4.44032 4.3613,4.40361 4.34805,4.36694 4.33475,4.33033 4.3214,4.29378 4.308,4.25728 4.29457,4.22084 4.28111,4.18447 4.26761,4.14816 4.25409,4.11191 4.24056,4.07574 4.227,4.03963 4.21344,4.0036 4.19988,3.96765 4.18632,3.93177 4.17276,3.89598 4.15922,3.86026 4.14569,3.82463 4.13219,3.78909 4.1187,3.75365 "/>
     <polygon id="_421618136" class="fil1" points="3.38815,1.56936 7.17442,5.35563 7.17869,5.36078 7.18265,5.36637 7.18627,5.37238 7.18952,5.37877 7.19236,5.38553 3.40609,1.59926 3.40325,1.5925 3.4,1.58611 3.39638,1.5801 3.39242,1.57451 "/>
     <polygon id="_421618160" class="fil1" points="3.59096,1.56054 7.37722,5.34681 7.37717,5.34698 3.5909,1.5607 "/>
     <polygon id="_421618184" class="fil1" points="4.03448,1.73854 7.82074,5.52481 7.82485,5.53015 4.03858,1.74388 "/>
     <polygon id="_421618256" class="fil1" points="4.03858,1.74388 7.82485,5.53015 7.82468,5.53049 4.03841,1.74422 "/>
     <polygon id="_421617536" class="fil1" points="4.03841,1.74422 7.82468,5.53049 7.82874,5.53635 7.83272,5.54223 7.83661,5.54814 7.84043,5.55409 7.84415,5.56006 7.8478,5.56606 7.85137,5.5721 7.85486,5.57817 7.85828,5.58426 7.86161,5.59039 7.86487,5.59655 7.86806,5.60274 7.87118,5.60896 7.87422,5.61521 7.87719,5.6215 7.88009,5.62781 7.88292,5.63416 7.88569,5.64054 7.88838,5.64695 7.89101,5.65339 7.89358,5.65987 7.89608,5.66638 7.89852,5.67292 7.90089,5.67949 7.90321,5.6861 7.90546,5.69274 7.90766,5.69941 7.9098,5.70611 7.91188,5.71285 7.91391,5.71962 7.91588,5.72643 7.9178,5.73326 4.13153,1.94699 4.12961,1.94015 4.12764,1.93335 4.12561,1.92658 4.12353,1.91984 4.12139,1.91314 4.1192,1.90646 4.11694,1.89983 4.11463,1.89322 4.11225,1.88665 4.10981,1.88011 4.10731,1.8736 4.10474,1.86712 4.10211,1.86068 4.09942,1.85427 4.09665,1.84789 4.09382,1.84154 4.09092,1.83522 4.08795,1.82894 4.08491,1.82269 4.0818,1.81647 4.07861,1.81028 4.07535,1.80412 4.07201,1.79799 4.06859,1.79189 4.0651,1.78583 4.06154,1.77979 4.05789,1.77379 4.05416,1.76781 4.05035,1.76187 4.04645,1.75596 4.04248,1.75007 "/>
     <polygon id="_434303280" class="fil1" points="4.13153,1.94699 7.9178,5.73326 7.91955,5.73974 7.92125,5.74624 7.92291,5.75275 7.92451,5.75928 7.92607,5.76582 7.92757,5.77237 7.92904,5.77894 7.93046,5.78552 7.93183,5.79211 7.93316,5.79872 7.93445,5.80535 7.9357,5.81198 7.9369,5.81863 7.93807,5.8253 7.93919,5.83198 7.94028,5.83867 7.94133,5.84537 7.94234,5.85209 7.94332,5.85882 7.94426,5.86556 7.94517,5.87231 7.94604,5.87909 7.94688,5.88587 7.94769,5.89266 7.94847,5.89947 7.94922,5.90629 7.94994,5.91312 7.95063,5.91996 7.9513,5.92682 7.95193,5.93369 7.95255,5.94057 7.95313,5.94746 4.16687,2.16119 4.16628,2.1543 4.16567,2.14742 4.16503,2.14055 4.16437,2.13369 4.16367,2.12685 4.16295,2.12002 4.1622,2.1132 4.16143,2.10639 4.16061,2.09959 4.15977,2.09281 4.1589,2.08604 4.15799,2.07929 4.15705,2.07255 4.15607,2.06581 4.15506,2.0591 4.15401,2.05239 4.15293,2.0457 4.1518,2.03903 4.15063,2.03236 4.14943,2.02571 4.14819,2.01907 4.14689,2.01245 4.14556,2.00584 4.14419,1.99925 4.14277,1.99267 4.14131,1.9861 4.1398,1.97955 4.13824,1.97301 4.13664,1.96648 4.13498,1.95997 4.13328,1.95347 "/>
     <polygon id="_434303136" class="fil1" points="4.16687,2.16119 7.95313,5.94746 7.95356,5.95109 7.95382,5.95473 7.95391,5.95839 7.95382,5.96205 7.95357,5.96571 7.95314,5.96936 7.95253,5.973 7.95175,5.97662 7.9508,5.98021 7.94966,5.98377 7.94835,5.98729 7.94686,5.99076 7.94519,5.99418 7.94333,5.99754 7.94129,6.00084 7.93907,6.00407 4.1528,2.2178 4.15502,2.21457 4.15706,2.21127 4.15892,2.20791 4.16059,2.20449 4.16208,2.20102 4.16339,2.1975 4.16453,2.19394 4.16548,2.19035 4.16626,2.18673 4.16687,2.18309 4.1673,2.17944 4.16756,2.17578 4.16764,2.17212 4.16755,2.16846 4.1673,2.16482 "/>
     <polygon id="_434303424" class="fil1" points="4.1528,2.2178 7.93907,6.00407 7.93893,6.00396 4.15266,2.21769 "/>
     <polygon id="_434303472" class="fil1" points="4.15266,2.21769 7.93893,6.00396 7.68376,6.35565 3.8975,2.56937 "/>
     <polygon id="_434303568" class="fil1" points="3.8975,2.56937 7.68376,6.35565 7.68189,6.3585 7.67989,6.36128 7.67776,6.36396 7.67552,6.36656 7.67316,6.36906 7.67068,6.37146 7.66809,6.37375 7.66539,6.37593 7.66259,6.378 7.65968,6.37995 7.65667,6.38177 7.65356,6.38347 7.65035,6.38503 7.64704,6.38645 7.64365,6.38773 7.64016,6.38887 3.85389,2.60259 3.85738,2.60146 3.86078,2.60018 3.86408,2.59876 3.86729,2.5972 3.8704,2.5955 3.87341,2.59368 3.87632,2.59173 3.87913,2.58966 3.88182,2.58748 3.88441,2.58519 3.88689,2.58279 3.88925,2.58029 3.89149,2.57769 3.89362,2.575 3.89562,2.57223 "/>
     <polygon id="_434303520" class="fil1" points="3.85389,2.60259 7.64016,6.38887 7.50569,6.42916 3.71943,2.64289 "/>
     <polygon id="_434303664" class="fil1" points="3.71943,2.64289 7.50569,6.42916 7.51064,6.44503 7.51566,6.46102 7.52076,6.47712 7.52593,6.49333 7.53118,6.50964 7.53649,6.52604 7.54186,6.54253 7.5473,6.5591 7.5528,6.57574 7.55835,6.59246 7.56395,6.60923 7.5696,6.62606 7.5753,6.64294 7.58105,6.65986 7.58684,6.67681 7.59266,6.6938 7.59852,6.71081 7.60442,6.72784 7.61034,6.74488 7.61629,6.76192 7.62226,6.77896 7.62826,6.79599 7.63427,6.813 7.6403,6.83 7.64633,6.84697 7.65238,6.8639 7.65844,6.8808 7.6645,6.89764 7.67056,6.91443 7.67661,6.93117 7.68266,6.94783 7.6887,6.96443 3.90244,3.17816 3.89639,3.16156 3.89034,3.14489 3.88429,3.12816 3.87823,3.11137 3.87217,3.09452 3.86611,3.07763 3.86007,3.0607 3.85403,3.04373 3.848,3.02673 3.84199,3.00972 3.83599,2.99269 3.83002,2.97565 3.82407,2.95861 3.81815,2.94157 3.81226,2.92454 3.80639,2.90753 3.80057,2.89054 3.79478,2.87359 3.78904,2.85667 3.78333,2.83979 3.77768,2.82296 3.77208,2.80619 3.76653,2.78947 3.76103,2.77283 3.75559,2.75626 3.75022,2.73977 3.74491,2.72337 3.73967,2.70706 3.73449,2.69085 3.72939,2.67475 3.72437,2.65876 "/>
     <polygon id="_434302992" class="fil1" points="3.90244,3.17816 7.6887,6.96443 7.89152,7.50456 4.10525,3.71829 "/>
    </g>
    <path id="_414979040" class="fil1" d="M4.54398 4.99353l0 0zm-0.438732 -1.27524c0.143291,0.376654 0.292709,0.769417 0.421157,1.16572 0.0118701,0.036622 0.0179291,0.0719488 0.0175748,0.109528 -0.00170866,0.12537 -0.085248,0.223528 -0.202476,0.265465l-0.0149685 0.00501575c-0.0706142,0.0217598 -0.144728,0.0221969 -0.213272,-0.00413386 -0.076626,-0.029874 -0.140882,-0.0941102 -0.170567,-0.200299 -0.057248,-0.204661 -0.108878,-0.410319 -0.157094,-0.614043l-0.0155945 -0.0663189c-0.0447244,-0.191638 -0.0867795,-0.38128 -0.127673,-0.566335 -0.0850118,-0.384268 -0.165724,-0.74911 -0.258209,-1.06953l-0.733209 0.219693c-0.0411732,0.0123386 -0.0845591,-0.0110394 -0.0968976,-0.0522205l-0.268075 -0.894677c-0.0121929,-0.0406417 0.0105157,-0.0844094 0.0522165,-0.0968976l0.733803 -0.219874c-0.00861417,-0.0386102 0.00635039,-0.0753071 0.0353346,-0.0839921l0.223091 -0.0668465c0.0289803,-0.00868504 0.0616654,0.0137402 0.0757008,0.0507244l0.135039 -0.0404606c0.0157913,-0.00474803 0.0332087,-0.00453543 0.0498228,0.00173622l-5.51181e-005 0.000169291 0.406445 0.153406c0.016126,0.00483858 0.0308031,0.0149252 0.0412362,0.0297677l-0.000169291 0.00034252c0.0437756,0.0622756 0.0729449,0.129657 0.0931142,0.202772 0.0189724,0.069063 0.0292047,0.14061 0.0353386,0.214201 0.00272835,0.0192756 -0.00172441,0.0395984 -0.014063,0.0566024l-0.000145669 -0.000106299 -0.255161 0.351685c-0.00967323,0.0154449 -0.0247795,0.0275787 -0.0436024,0.0332205l-0.134469 0.0402913c0.0523071,0.16863 0.118606,0.358665 0.183012,0.535272l0.202815 0.54013z"/>
   </g>
  </g>
  <path class="fil2" d="M3.41333 0c1.88513,0 3.41333,1.5282 3.41333,3.41333 0,1.88513 -1.5282,3.41333 -3.41333,3.41333 -1.88513,0 -3.41333,-1.5282 -3.41333,-3.41333 0,-1.88513 1.5282,-3.41333 3.41333,-3.41333z"/>
  <path class="fil3" d="M4.10524 3.71828c0.143291,0.376654 0.292709,0.769417 0.421157,1.16572 0.0455906,0.140673 -0.00203543,0.252614 -0.0886102,0.321803 -0.0329646,0.0263425 -0.0722992,0.0464291 -0.11402,0.0590591 -0.0414173,0.0125315 -0.085252,0.0175984 -0.127547,0.014 -0.111055,-0.00944488 -0.213563,-0.0764094 -0.253528,-0.219287 -0.117437,-0.419815 -0.21124,-0.843831 -0.300366,-1.2467 -0.0908071,-0.410457 -0.176709,-0.79876 -0.277287,-1.13442 -0.0130984,-0.0437205 0.00125197,-0.0866496 0.0320551,-0.095878l0.223094 -0.0668465c0.0308031,-0.00922835 0.0663937,0.0187323 0.0794961,0.0624528 0.104469,0.348657 0.251437,0.734976 0.405555,1.1401z"/>
  <path class="fil4" d="M4.54166 4.9518c0.00175197,0.0142874 0.00250787,0.0282047 0.00232283,0.0417323 -0.203862,-0.381276 -0.36613,-0.770213 -0.48715,-1.17998 0.105665,0.468728 0.25526,0.885386 0.456406,1.30226 -0.00332283,0.00629134 -0.00688976,0.0124213 -0.0106811,0.0183976 -0.217217,-0.449465 -0.377902,-0.913189 -0.482583,-1.41211 -0.0468307,-0.223209 -0.0894528,-0.416634 -0.140358,-0.606772 0.0209567,0.0580315 0.0424961,0.116717 0.0645,0.176 0.00291732,0.0138189 0.00584646,0.0277402 0.00879528,0.0417835 0.124173,0.591976 0.315528,1.098 0.588748,1.61868zm-0.199429 0.306925c-0.00518504,0.00187795 -0.0104213,0.00364173 -0.0156969,0.00528346 -0.106921,-0.317843 -0.226579,-0.582823 -0.384646,-0.916732 -0.166543,-0.351815 -0.294669,-0.707016 -0.389835,-1.07317 0.0637756,0.42072 0.168008,0.789878 0.352874,1.18036 0.136453,0.288209 0.23013,0.499717 0.317945,0.809862 0.00196063,0.00692126 -0.0083189,0.0111339 -0.0103425,0.0039685 -0.087685,-0.309831 -0.181201,-0.520965 -0.317535,-0.808961 -0.191079,-0.403646 -0.30639,-0.813961 -0.364358,-1.25664 -0.000307087,-0.00233071 0.000570866,-0.00424803 0.00193701,-0.00553937 -0.0498583,-0.202413 -0.0898465,-0.408315 -0.120862,-0.618957l0.0165551 -0.00496063c0.0956102,0.629594 0.251776,1.18223 0.528508,1.76674 0.15837,0.334504 0.278287,0.600079 0.385457,0.918744zm-0.219594 0.00461024c-0.00314567,-0.00109843 -0.00627165,-0.00225197 -0.00937795,-0.00346457 -0.0634724,-0.222161 -0.131433,-0.375429 -0.229957,-0.583547 -0.0362087,-0.0764961 -0.0686929,-0.153323 -0.0977008,-0.230799 -0.00523622,-0.0221299 -0.0104331,-0.0442362 -0.0155945,-0.066315 0.0339213,0.0974528 0.0737008,0.194567 0.120567,0.293551 0.0995433,0.210256 0.167972,0.364728 0.232063,0.590575z"/>
  <path class="fil5" d="M3.43837 1.70387c0.00933071,0.0294094 0.0194882,0.0606496 0.0303976,0.0935276 0.00112598,0.00283071 0.00214567,0.00574016 0.00304331,0.00873622 0.0123386,0.0411772 -0.00262992,0.0820433 -0.0334331,0.0912717l-0.229583 0.0687913 -3.93701e-006 -3.93701e-006c-0.000771654,0.000228346 -0.00154724,0.000444882 -0.00233858,0.000633858 -0.0312874,0.00751181 -0.0656063,-0.0200709 -0.0766535,-0.0615945l0.000177165 -4.33071e-005c-0.00948819,-0.0356575 -0.0186654,-0.069311 -0.0275039,-0.100717 -0.00705512,-0.0250748 -0.0164961,-0.0573937 -0.0286102,-0.0978189 -0.0123386,-0.0411772 0.00262992,-0.0820433 0.0334331,-0.0912717l0.223094 -0.0668465c0.0308031,-0.00922835 0.0657756,0.0166693 0.0781142,0.0578465 0.0122362,0.0408386 0.0221181,0.073063 0.0298661,0.0974882z"/>
  <path class="fil6" d="M3.85388 2.60259l-1.20297 0.360453c-0.0411732,0.0123386 -0.0845591,-0.0110433 -0.0968976,-0.0522165l-0.268075 -0.894681c-0.0123386,-0.0411772 0.0110394,-0.084563 0.0522165,-0.0969016l1.20297 -0.360449 0 3.93701e-006c0.0157953,-0.00474409 0.0332087,-0.00453543 0.0498228,0.00173622l-0.0274803 0.0728189 0.0274252 -0.0726496 0.406445 0.153406c0.016126,0.00483858 0.0308071,0.0149252 0.0412402,0.0297677l-0.0636732 0.0447638 0.0635 -0.0444213c0.043937,0.0625 0.0732677,0.13052 0.0931142,0.202772 0.0189724,0.069063 0.0292047,0.14061 0.0353425,0.214201 0.00272441,0.0192795 -0.00172835,0.0395984 -0.0140669,0.0566024l-0.000145669 -0.000106299 -0.255161 0.351685c-0.00967323,0.0154409 -0.0247795,0.0275787 -0.0436063,0.0332165z"/>
  <path class="fil7" d="M3.79888 2.61907l-1.14797 0.343972c-0.0411732,0.0123386 -0.0845591,-0.0110433 -0.0968976,-0.0522165l-0.268075 -0.894681c-0.00712992,-0.0237874 -0.00233858,-0.048311 0.0109213,-0.0671575 0.785953,-0.210898 1.37241,-0.255063 1.71972,-0.189646l-0.0416732 0.0292992 0.0418386 -0.0292677c0.0124252,0.00234252 0.0248622,0.00468504 0.0366772,0.00730709 0.0357402,0.0562244 0.0606063,0.116622 0.0780984,0.180311 0.0189724,0.069063 0.0292047,0.14061 0.0353425,0.214201 0.00272441,0.0192795 -0.00172835,0.0395984 -0.0140669,0.0566024l-0.000145669 -0.000106299 -0.244496 0.336984c-0.0344055,0.0212953 -0.0709606,0.0427795 -0.109272,0.0643976z"/>
  <g id="_615660296">
   <path id="_421616336" class="fil2 str0" d="M8.33025 8.7798l0 0zm-3.78627 -3.78627l0 0z"/>
  </g>
  <line class="fil2 str0" x1="4.54398" y1="4.99353" x2="4.54398" y2= "4.99353" />
 </g>
</svg>
